<svg width="415" height="358" viewBox="0 0 415 358" version="1.1" xmlns="http://www.w3.org/2000/svg" xmlns:xlink="http://www.w3.org/1999/xlink">
<title>Group 4</title>
<desc>Created using Figma</desc>
<g id="Canvas" transform="translate(-1866 479)">
<g id="Group 4">
<g id="university">
<g id="Group">
<g id="Group">
<g id="Group">
<g id="Vector">
<use xlink:href="#path0_fill" transform="translate(2033.07 -348)" fill="#FFFFFF"/>
</g>
<g id="Vector">
<use xlink:href="#path1_fill" transform="translate(2033.07 -400.4)" fill="#FFFFFF"/>
</g>
<g id="Vector">
<use xlink:href="#path2_fill" transform="translate(1998.13 -479)" fill="#FFFFFF"/>
</g>
<g id="Vector">
<use xlink:href="#path3_fill" transform="translate(1963.2 -347.999)" fill="#FFFFFF"/>
</g>
<g id="Vector">
<use xlink:href="#path4_fill" transform="translate(2006.87 -387.3)" fill="#FFFFFF"/>
</g>
<g id="Vector">
<use xlink:href="#path5_fill" transform="translate(1989.4 -295.599)" fill="#FFFFFF"/>
</g>
<g id="Vector">
<use xlink:href="#path6_fill" transform="translate(2146.6 -291.234)" fill="#FFFFFF"/>
</g>
<g id="Vector">
<use xlink:href="#path7_fill" transform="translate(2146.6 -343.634)" fill="#FFFFFF"/>
</g>
<g id="Vector">
<use xlink:href="#path8_fill" transform="translate(1971.93 -225.733)" fill="#FFFFFF"/>
</g>
<g id="Vector">
<use xlink:href="#path9_fill" transform="translate(2137.87 -382.934)" fill="#FFFFFF"/>
</g>
<g id="Vector">
<use xlink:href="#path10_fill" transform="translate(2076.73 -348)" fill="#FFFFFF"/>
</g>
<g id="Vector">
<use xlink:href="#path11_fill" transform="translate(1937 -321.8)" fill="#FFFFFF"/>
</g>
<g id="Vector">
<use xlink:href="#path12_fill" transform="translate(2120.4 -391.667)" fill="#FFFFFF"/>
</g>
<g id="Vector">
<use xlink:href="#path13_fill" transform="translate(2076.73 -400.4)" fill="#FFFFFF"/>
</g>
<g id="Vector">
<use xlink:href="#path14_fill" transform="translate(1937 -382.932)" fill="#FFFFFF"/>
</g>
</g>
</g>
</g>
</g>
<g id="Vector">
<use xlink:href="#path15_stroke" transform="translate(1868 -304)" fill="#FFFFFF"/>
</g>
<g id="Vector">
<use xlink:href="#path16_stroke" transform="matrix(-1 0 0 1 2279 -304)" fill="#FFFFFF"/>
</g>
<g id="Group 3">
<g id="005-plus">
<g id="Group">
<g id="Vector">
<use xlink:href="#path17_fill" transform="translate(1997 -161)" fill="#FFFFFF"/>
</g>
<g id="Vector">
<use xlink:href="#path18_fill" transform="translate(2006.64 -151)" fill="#FFFFFF"/>
</g>
</g>
</g>
<g id="Group">
<g id="010-edit">
<g id="Vector">
<use xlink:href="#path19_fill" transform="translate(2064.92 -152.111)" fill="#FFFFFF"/>
</g>
</g>
<g id="Ellipse">
<mask id="mask0_outline_ins">
<use xlink:href="#path20_fill" fill="white" transform="translate(2054.9 -161)"/>
</mask>
<g mask="url(#mask0_outline_ins)">
<use xlink:href="#path21_stroke_2x" transform="translate(2054.9 -161)" fill="#FFFFFF"/>
</g>
</g>
</g>
<g id="Group 2">
<g id="Ellipse">
<mask id="mask1_outline_ins">
<use xlink:href="#path20_fill" fill="white" transform="translate(2113.91 -161)"/>
</mask>
<g mask="url(#mask1_outline_ins)">
<use xlink:href="#path21_stroke_2x" transform="translate(2113.91 -161)" fill="#FFFFFF"/>
</g>
</g>
<g id="-">
<g id="Group">
<g id="Vector">
<use xlink:href="#path22_fill" transform="translate(2121.71 -147.667)" fill="#FFFFFF"/>
</g>
</g>
</g>
</g>
</g>
</g>
</g>
<defs>
<path id="path0_fill" d="M 8.74519e-07 30.5665C 8.74519e-07 32.9767 1.9563 34.933 4.3665 34.933L 21.8335 34.933C 24.2437 34.933 26.2 32.9767 26.2 30.5665L 26.2 4.36649C 26.2 1.9563 24.2437 0 21.8335 0L 4.36701 0C 1.95681 0 0.000508408 1.9563 0.000508408 4.36649L 0.000508408 30.5665L 8.74519e-07 30.5665ZM 8.7335 8.7335L 17.467 8.7335L 17.467 26.2L 8.7335 26.2L 8.7335 8.7335Z"/>
<path id="path1_fill" d="M 4.36649 34.933L 21.833 34.933C 24.2432 34.933 26.1995 32.9767 26.1995 30.5665L 26.1995 4.3665C 26.1995 1.9563 24.2432 -1.06192e-06 21.833 -1.06192e-06L 4.36649 -1.06192e-06C 1.9563 -1.06192e-06 -3.21031e-06 1.9563 -3.21031e-06 4.3665L -3.21031e-06 30.5665C -0.000514929 32.9767 1.95579 34.933 4.36649 34.933ZM 8.73299 8.733L 17.4665 8.733L 17.4665 26.1995L 8.73299 26.1995L 8.73299 8.733Z"/>
<path id="path2_fill" d="M 6.6159 82.3422L 69.8669 44.3916L 133.118 82.3422C 133.821 82.7659 134.598 82.9665 135.362 82.9665C 136.847 82.9665 138.292 82.2112 139.109 80.8485C 140.354 78.7786 139.681 76.0977 137.616 74.8573L 74.2334 36.8284L 74.2334 8.7335L 96.0669 8.7335L 96.0669 17.467L 82.9669 17.467C 80.5567 17.467 78.6004 19.4233 78.6004 21.8335C 78.6004 24.2437 80.5567 26.2 82.9669 26.2L 100.433 26.2C 102.844 26.2 104.8 24.2437 104.8 21.8335L 104.8 4.3665C 104.8 1.9563 102.844 0 100.433 0L 69.8669 0C 67.4567 0 65.5004 1.9563 65.5004 4.3665L 65.5004 36.8284L 2.1184 74.8578C 0.053106 76.0977 -0.619292 78.7791 0.625208 80.849C 1.8605 82.9143 4.55009 83.5867 6.6159 82.3422Z"/>
<path id="path3_fill" d="M 21.8335 34.933C 24.2437 34.933 26.2 32.9767 26.2 30.5665L 26.2 4.36649C 26.2 1.9563 24.2437 3.62301e-06 21.8335 3.62301e-06L 4.3665 3.62301e-06C 1.9563 3.62301e-06 3.9041e-07 1.9563 3.9041e-07 4.36649L 3.9041e-07 13.0995C 3.9041e-07 15.5097 1.9563 17.466 4.3665 17.466C 6.77669 17.466 8.73299 15.5097 8.73299 13.0995L 8.73299 8.73299L 17.4665 8.73299L 17.4665 30.5665C 17.4665 32.9767 19.4228 34.933 21.8335 34.933Z"/>
<path id="path4_fill" d="M 8.73299 131L 8.73299 4.3665C 8.73299 1.9563 6.77669 -1.56164e-06 4.36649 -1.56164e-06C 1.9563 -1.56164e-06 -1.74904e-06 1.9563 -1.74904e-06 4.3665L -1.74904e-06 131C -1.74904e-06 133.41 1.9563 135.366 4.36649 135.366C 6.77669 135.366 8.73299 133.41 8.73299 131Z"/>
<path id="path5_fill" d="M 4.36649 61.1325L 152.833 61.1325C 155.243 61.1325 157.199 59.1762 157.199 56.766C 157.199 54.3558 155.243 52.3995 152.833 52.3995L 113.533 52.3995L 113.533 8.73298L 117.899 8.73298C 120.31 8.73298 122.266 6.77669 122.266 4.36649C 122.266 1.9563 120.31 4.12273e-06 117.899 4.12273e-06L 39.3 4.12273e-06C 36.8898 4.12273e-06 34.9335 1.9563 34.9335 4.36649C 34.9335 6.77669 36.8898 8.73298 39.3 8.73298L 43.6665 8.73298L 43.6665 52.399L 4.36649 52.399C 1.9563 52.399 7.8082e-07 54.3553 7.8082e-07 56.7655C 7.8082e-07 59.1757 1.9563 61.1325 4.36649 61.1325ZM 82.9665 34.9325C 85.3766 34.9325 87.333 32.9762 87.333 30.566C 87.333 28.1558 85.3766 26.1995 82.9665 26.1995L 82.9665 8.73298L 104.8 8.73298L 104.8 52.399L 82.9665 52.399L 82.9665 34.9325ZM 52.4 8.73248L 74.2335 8.73248L 74.2335 26.199C 71.8233 26.199 69.867 28.1553 69.867 30.5655C 69.867 32.9757 71.8233 34.932 74.2335 34.932L 74.2335 52.399L 52.4 52.399L 52.4 8.73248Z"/>
<path id="path6_fill" d="M 21.833 7.12109e-06L 4.3665 7.12109e-06C 1.9563 7.12109e-06 6.74629e-06 1.9563 6.74629e-06 4.3665L 6.74629e-06 30.5665C 6.74629e-06 32.9767 1.9563 34.933 4.3665 34.933L 21.833 34.933C 24.2432 34.933 26.1995 32.9767 26.1995 30.5665L 26.1995 4.3665C 26.1995 1.9563 24.2432 7.12109e-06 21.833 7.12109e-06ZM 17.466 26.2L 8.73247 26.2L 8.73247 8.7335L 17.466 8.7335L 17.466 26.2Z"/>
<path id="path7_fill" d="M 21.833 -5.37205e-06L 4.3665 -5.37205e-06C 1.9563 -5.37205e-06 6.74629e-06 1.95631 6.74629e-06 4.3665L 6.74629e-06 30.5665C 6.74629e-06 32.9767 1.9563 34.933 4.3665 34.933L 21.833 34.933C 24.2432 34.933 26.1995 32.9767 26.1995 30.5665L 26.1995 4.3665C 26.1995 1.95631 24.2432 -5.37205e-06 21.833 -5.37205e-06ZM 17.466 26.2L 8.73247 26.2L 8.73247 8.73351L 17.466 8.73351L 17.466 26.2Z"/>
<path id="path8_fill" d="M 187.766 7.12109e-06L 4.3665 7.12109e-06C 1.9563 7.12109e-06 -8.74519e-07 1.9563 -8.74519e-07 4.3665C -8.74519e-07 6.77669 1.9563 8.7335 4.3665 8.7335L 187.766 8.7335C 190.177 8.7335 192.133 6.77721 192.133 4.36701C 192.133 1.95682 190.177 7.12109e-06 187.766 7.12109e-06Z"/>
<path id="path9_fill" d="M 56.7665 8.74519e-07C 54.3563 8.74519e-07 52.4 1.9563 52.4 4.3665L 52.4 8.73299L 4.36649 8.73299C 1.95629 8.73299 -1.74904e-06 10.6893 -1.74904e-06 13.0995C -1.74904e-06 15.5097 1.95629 17.466 4.36649 17.466L 52.4 17.466L 52.4 161.566C 52.4 163.976 54.3563 165.932 56.7665 165.932C 59.1767 165.932 61.133 163.976 61.133 161.566L 61.133 4.36598C 61.133 1.9563 59.1767 8.74519e-07 56.7665 8.74519e-07Z"/>
<path id="path10_fill" d="M -7.12108e-06 30.5665C -7.12108e-06 32.9767 1.9563 34.933 4.3665 34.933L 21.833 34.933C 24.2432 34.933 26.1995 32.9767 26.1995 30.5665L 26.1995 4.36649C 26.1995 1.9563 24.2432 0 21.833 0L 4.3665 0C 1.9563 0 -7.12108e-06 1.9563 -7.12108e-06 4.36649L -7.12108e-06 30.5665ZM 8.73299 8.7335L 17.4665 8.7335L 17.4665 26.2L 8.73299 26.2L 8.73299 8.7335Z"/>
<path id="path11_fill" d="M 43.6665 56.7665C 43.6665 56.199 43.4178 6.24657e-06 21.833 6.24657e-06C 0.248695 6.24657e-06 0 56.199 0 56.7665C 0 67.312 7.5151 76.1284 17.4665 78.1589L 17.4665 100.434C 17.4665 102.844 19.4228 104.8 21.833 104.8C 24.2432 104.8 26.1995 102.844 26.1995 100.434L 26.1995 78.1589C 36.1514 76.1284 43.6665 67.312 43.6665 56.7665ZM 21.8335 69.8665C 14.6111 69.8665 8.7335 63.9889 8.7335 56.7665C 8.7335 35.0118 14.5763 8.73299 21.8335 8.73299C 29.0907 8.73299 34.9335 35.0118 34.9335 56.7665C 34.9335 63.9889 29.0559 69.8665 21.8335 69.8665Z"/>
<path id="path12_fill" d="M 8.73299 135.366L 8.73299 4.36649C 8.73299 1.9563 6.77668 3.81041e-06 4.36649 3.81041e-06C 1.95629 3.81041e-06 4.99725e-07 1.9563 4.99725e-07 4.36649L 4.99725e-07 135.366C 4.99725e-07 137.777 1.95629 139.733 4.36649 139.733C 6.77668 139.733 8.73299 137.777 8.73299 135.366Z"/>
<path id="path13_fill" d="M 4.3665 34.933L 21.833 34.933C 24.2432 34.933 26.1995 32.9767 26.1995 30.5665L 26.1995 4.3665C 26.1995 1.9563 24.2432 -1.06192e-06 21.833 -1.06192e-06L 4.3665 -1.06192e-06C 1.9563 -1.06192e-06 -7.12108e-06 1.9563 -7.12108e-06 4.3665L -7.12108e-06 30.5665C -7.12108e-06 32.9767 1.9563 34.933 4.3665 34.933ZM 8.73299 8.733L 17.4665 8.733L 17.4665 26.1995L 8.73299 26.1995L 8.73299 8.733Z"/>
<path id="path14_fill" d="M 4.36649 56.766C 6.77669 56.766 8.73299 54.8097 8.73299 52.3995L 8.73299 17.466L 56.7665 17.466C 59.1767 17.466 61.133 15.5097 61.133 13.0995C 61.133 10.6893 59.1767 8.73299 56.7665 8.73299L 8.7335 8.73299L 8.7335 4.3665C 8.7335 1.9563 6.7772 3.12328e-07 4.36701 3.12328e-07C 1.95681 3.12328e-07 0 1.95528 0 4.36598L 0 52.3995C 0 54.8097 1.9563 56.766 4.36649 56.766Z"/>
<path id="path15_stroke" d="M 109 165C 110.105 165 111 164.105 111 163C 111 161.895 110.105 161 109 161L 109 165ZM 0 163L -2 163L -2 165L 0 165L 0 163ZM 0 0L 0 -2L -2 -2L -2 0L 0 0ZM 57 2C 58.1046 2 59 1.10457 59 0C 59 -1.10457 58.1046 -2 57 -2L 57 2ZM 53.4375 -2C 52.3329 -2 51.4375 -1.10457 51.4375 0C 51.4375 1.10457 52.3329 2 53.4375 2L 53.4375 -2ZM 46.3125 2C 47.4171 2 48.3125 1.10457 48.3125 0C 48.3125 -1.10457 47.4171 -2 46.3125 -2L 46.3125 2ZM 39.1875 -2C 38.0829 -2 37.1875 -1.10457 37.1875 0C 37.1875 1.10457 38.0829 2 39.1875 2L 39.1875 -2ZM 32.0625 2C 33.1671 2 34.0625 1.10457 34.0625 0C 34.0625 -1.10457 33.1671 -2 32.0625 -2L 32.0625 2ZM 24.9375 -2C 23.8329 -2 22.9375 -1.10457 22.9375 0C 22.9375 1.10457 23.8329 2 24.9375 2L 24.9375 -2ZM 17.8125 2C 18.9171 2 19.8125 1.10457 19.8125 0C 19.8125 -1.10457 18.9171 -2 17.8125 -2L 17.8125 2ZM 10.6875 -2C 9.58293 -2 8.6875 -1.10457 8.6875 0C 8.6875 1.10457 9.58293 2 10.6875 2L 10.6875 -2ZM 3.5625 2C 4.66707 2 5.5625 1.10457 5.5625 0C 5.5625 -1.10457 4.66707 -2 3.5625 -2L 3.5625 2ZM -2 4.075C -2 5.17957 -1.10457 6.075 0 6.075C 1.10457 6.075 2 5.17957 2 4.075L -2 4.075ZM 2 12.225C 2 11.1204 1.10457 10.225 0 10.225C -1.10457 10.225 -2 11.1204 -2 12.225L 2 12.225ZM -2 20.375C -2 21.4796 -1.10457 22.375 0 22.375C 1.10457 22.375 2 21.4796 2 20.375L -2 20.375ZM 2 28.525C 2 27.4204 1.10457 26.525 0 26.525C -1.10457 26.525 -2 27.4204 -2 28.525L 2 28.525ZM -2 36.675C -2 37.7796 -1.10457 38.675 0 38.675C 1.10457 38.675 2 37.7796 2 36.675L -2 36.675ZM 2 44.825C 2 43.7204 1.10457 42.825 0 42.825C -1.10457 42.825 -2 43.7204 -2 44.825L 2 44.825ZM -2 52.975C -2 54.0796 -1.10457 54.975 0 54.975C 1.10457 54.975 2 54.0796 2 52.975L -2 52.975ZM 2 61.125C 2 60.0204 1.10457 59.125 0 59.125C -1.10457 59.125 -2 60.0204 -2 61.125L 2 61.125ZM -2 69.275C -2 70.3796 -1.10457 71.275 0 71.275C 1.10457 71.275 2 70.3796 2 69.275L -2 69.275ZM 2 77.425C 2 76.3204 1.10457 75.425 0 75.425C -1.10457 75.425 -2 76.3204 -2 77.425L 2 77.425ZM -2 85.575C -2 86.6796 -1.10457 87.575 0 87.575C 1.10457 87.575 2 86.6796 2 85.575L -2 85.575ZM 2 93.725C 2 92.6204 1.10457 91.725 0 91.725C -1.10457 91.725 -2 92.6204 -2 93.725L 2 93.725ZM -2 101.875C -2 102.98 -1.10457 103.875 0 103.875C 1.10457 103.875 2 102.98 2 101.875L -2 101.875ZM 2 110.025C 2 108.92 1.10457 108.025 0 108.025C -1.10457 108.025 -2 108.92 -2 110.025L 2 110.025ZM -2 118.175C -2 119.28 -1.10457 120.175 0 120.175C 1.10457 120.175 2 119.28 2 118.175L -2 118.175ZM 2 126.325C 2 125.22 1.10457 124.325 0 124.325C -1.10457 124.325 -2 125.22 -2 126.325L 2 126.325ZM -2 134.475C -2 135.58 -1.10457 136.475 0 136.475C 1.10457 136.475 2 135.58 2 134.475L -2 134.475ZM 2 142.625C 2 141.52 1.10457 140.625 0 140.625C -1.10457 140.625 -2 141.52 -2 142.625L 2 142.625ZM -2 150.775C -2 151.88 -1.10457 152.775 0 152.775C 1.10457 152.775 2 151.88 2 150.775L -2 150.775ZM 2 158.925C 2 157.82 1.10457 156.925 0 156.925C -1.10457 156.925 -2 157.82 -2 158.925L 2 158.925ZM 3.89286 165C 4.99743 165 5.89286 164.105 5.89286 163C 5.89286 161.895 4.99743 161 3.89286 161L 3.89286 165ZM 11.6786 161C 10.574 161 9.67857 161.895 9.67857 163C 9.67857 164.105 10.574 165 11.6786 165L 11.6786 161ZM 19.4643 165C 20.5689 165 21.4643 164.105 21.4643 163C 21.4643 161.895 20.5689 161 19.4643 161L 19.4643 165ZM 27.25 161C 26.1454 161 25.25 161.895 25.25 163C 25.25 164.105 26.1454 165 27.25 165L 27.25 161ZM 35.0357 165C 36.1403 165 37.0357 164.105 37.0357 163C 37.0357 161.895 36.1403 161 35.0357 161L 35.0357 165ZM 42.8214 161C 41.7169 161 40.8214 161.895 40.8214 163C 40.8214 164.105 41.7169 165 42.8214 165L 42.8214 161ZM 50.6071 165C 51.7117 165 52.6071 164.105 52.6071 163C 52.6071 161.895 51.7117 161 50.6071 161L 50.6071 165ZM 58.3929 161C 57.2883 161 56.3929 161.895 56.3929 163C 56.3929 164.105 57.2883 165 58.3929 165L 58.3929 161ZM 66.1786 165C 67.2831 165 68.1786 164.105 68.1786 163C 68.1786 161.895 67.2831 161 66.1786 161L 66.1786 165ZM 73.9643 161C 72.8597 161 71.9643 161.895 71.9643 163C 71.9643 164.105 72.8597 165 73.9643 165L 73.9643 161ZM 81.75 165C 82.8546 165 83.75 164.105 83.75 163C 83.75 161.895 82.8546 161 81.75 161L 81.75 165ZM 89.5357 161C 88.4311 161 87.5357 161.895 87.5357 163C 87.5357 164.105 88.4311 165 89.5357 165L 89.5357 161ZM 97.3214 165C 98.426 165 99.3214 164.105 99.3214 163C 99.3214 161.895 98.426 161 97.3214 161L 97.3214 165ZM 105.107 161C 104.003 161 103.107 161.895 103.107 163C 103.107 164.105 104.003 165 105.107 165L 105.107 161ZM 57 -2L 53.4375 -2L 53.4375 2L 57 2L 57 -2ZM 46.3125 -2L 39.1875 -2L 39.1875 2L 46.3125 2L 46.3125 -2ZM 32.0625 -2L 24.9375 -2L 24.9375 2L 32.0625 2L 32.0625 -2ZM 17.8125 -2L 10.6875 -2L 10.6875 2L 17.8125 2L 17.8125 -2ZM 3.5625 -2L 0 -2L 0 2L 3.5625 2L 3.5625 -2ZM -2 0L -2 4.075L 2 4.075L 2 0L -2 0ZM -2 12.225L -2 20.375L 2 20.375L 2 12.225L -2 12.225ZM -2 28.525L -2 36.675L 2 36.675L 2 28.525L -2 28.525ZM -2 44.825L -2 52.975L 2 52.975L 2 44.825L -2 44.825ZM -2 61.125L -2 69.275L 2 69.275L 2 61.125L -2 61.125ZM -2 77.425L -2 85.575L 2 85.575L 2 77.425L -2 77.425ZM -2 93.725L -2 101.875L 2 101.875L 2 93.725L -2 93.725ZM -2 110.025L -2 118.175L 2 118.175L 2 110.025L -2 110.025ZM -2 126.325L -2 134.475L 2 134.475L 2 126.325L -2 126.325ZM -2 142.625L -2 150.775L 2 150.775L 2 142.625L -2 142.625ZM -2 158.925L -2 163L 2 163L 2 158.925L -2 158.925ZM 0 165L 3.89286 165L 3.89286 161L 0 161L 0 165ZM 11.6786 165L 19.4643 165L 19.4643 161L 11.6786 161L 11.6786 165ZM 27.25 165L 35.0357 165L 35.0357 161L 27.25 161L 27.25 165ZM 42.8214 165L 50.6071 165L 50.6071 161L 42.8214 161L 42.8214 165ZM 58.3929 165L 66.1786 165L 66.1786 161L 58.3929 161L 58.3929 165ZM 73.9643 165L 81.75 165L 81.75 161L 73.9643 161L 73.9643 165ZM 89.5357 165L 97.3214 165L 97.3214 161L 89.5357 161L 89.5357 165ZM 105.107 165L 109 165L 109 161L 105.107 161L 105.107 165Z"/>
<path id="path16_stroke" d="M 112 165C 113.105 165 114 164.105 114 163C 114 161.895 113.105 161 112 161L 112 165ZM 0 163L -2 163L -2 165L 0 165L 0 163ZM 0 0L 0 -2L -2 -2L -2 0L 0 0ZM 57 2C 58.1046 2 59 1.10457 59 0C 59 -1.10457 58.1046 -2 57 -2L 57 2ZM 53.4375 -2C 52.3329 -2 51.4375 -1.10457 51.4375 0C 51.4375 1.10457 52.3329 2 53.4375 2L 53.4375 -2ZM 46.3125 2C 47.4171 2 48.3125 1.10457 48.3125 0C 48.3125 -1.10457 47.4171 -2 46.3125 -2L 46.3125 2ZM 39.1875 -2C 38.0829 -2 37.1875 -1.10457 37.1875 0C 37.1875 1.10457 38.0829 2 39.1875 2L 39.1875 -2ZM 32.0625 2C 33.1671 2 34.0625 1.10457 34.0625 0C 34.0625 -1.10457 33.1671 -2 32.0625 -2L 32.0625 2ZM 24.9375 -2C 23.8329 -2 22.9375 -1.10457 22.9375 0C 22.9375 1.10457 23.8329 2 24.9375 2L 24.9375 -2ZM 17.8125 2C 18.9171 2 19.8125 1.10457 19.8125 0C 19.8125 -1.10457 18.9171 -2 17.8125 -2L 17.8125 2ZM 10.6875 -2C 9.58293 -2 8.6875 -1.10457 8.6875 0C 8.6875 1.10457 9.58293 2 10.6875 2L 10.6875 -2ZM 3.5625 2C 4.66707 2 5.5625 1.10457 5.5625 0C 5.5625 -1.10457 4.66707 -2 3.5625 -2L 3.5625 2ZM -2 4.075C -2 5.17957 -1.10457 6.075 0 6.075C 1.10457 6.075 2 5.17957 2 4.075L -2 4.075ZM 2 12.225C 2 11.1204 1.10457 10.225 0 10.225C -1.10457 10.225 -2 11.1204 -2 12.225L 2 12.225ZM -2 20.375C -2 21.4796 -1.10457 22.375 0 22.375C 1.10457 22.375 2 21.4796 2 20.375L -2 20.375ZM 2 28.525C 2 27.4204 1.10457 26.525 0 26.525C -1.10457 26.525 -2 27.4204 -2 28.525L 2 28.525ZM -2 36.675C -2 37.7796 -1.10457 38.675 0 38.675C 1.10457 38.675 2 37.7796 2 36.675L -2 36.675ZM 2 44.825C 2 43.7204 1.10457 42.825 0 42.825C -1.10457 42.825 -2 43.7204 -2 44.825L 2 44.825ZM -2 52.975C -2 54.0796 -1.10457 54.975 0 54.975C 1.10457 54.975 2 54.0796 2 52.975L -2 52.975ZM 2 61.125C 2 60.0204 1.10457 59.125 0 59.125C -1.10457 59.125 -2 60.0204 -2 61.125L 2 61.125ZM -2 69.275C -2 70.3796 -1.10457 71.275 0 71.275C 1.10457 71.275 2 70.3796 2 69.275L -2 69.275ZM 2 77.425C 2 76.3204 1.10457 75.425 0 75.425C -1.10457 75.425 -2 76.3204 -2 77.425L 2 77.425ZM -2 85.575C -2 86.6796 -1.10457 87.575 0 87.575C 1.10457 87.575 2 86.6796 2 85.575L -2 85.575ZM 2 93.725C 2 92.6204 1.10457 91.725 0 91.725C -1.10457 91.725 -2 92.6204 -2 93.725L 2 93.725ZM -2 101.875C -2 102.98 -1.10457 103.875 0 103.875C 1.10457 103.875 2 102.98 2 101.875L -2 101.875ZM 2 110.025C 2 108.92 1.10457 108.025 0 108.025C -1.10457 108.025 -2 108.92 -2 110.025L 2 110.025ZM -2 118.175C -2 119.28 -1.10457 120.175 0 120.175C 1.10457 120.175 2 119.28 2 118.175L -2 118.175ZM 2 126.325C 2 125.22 1.10457 124.325 0 124.325C -1.10457 124.325 -2 125.22 -2 126.325L 2 126.325ZM -2 134.475C -2 135.58 -1.10457 136.475 0 136.475C 1.10457 136.475 2 135.58 2 134.475L -2 134.475ZM 2 142.625C 2 141.52 1.10457 140.625 0 140.625C -1.10457 140.625 -2 141.52 -2 142.625L 2 142.625ZM -2 150.775C -2 151.88 -1.10457 152.775 0 152.775C 1.10457 152.775 2 151.88 2 150.775L -2 150.775ZM 2 158.925C 2 157.82 1.10457 156.925 0 156.925C -1.10457 156.925 -2 157.82 -2 158.925L 2 158.925ZM 4 165C 5.10457 165 6 164.105 6 163C 6 161.895 5.10457 161 4 161L 4 165ZM 12 161C 10.8954 161 10 161.895 10 163C 10 164.105 10.8954 165 12 165L 12 161ZM 20 165C 21.1046 165 22 164.105 22 163C 22 161.895 21.1046 161 20 161L 20 165ZM 28 161C 26.8954 161 26 161.895 26 163C 26 164.105 26.8954 165 28 165L 28 161ZM 36 165C 37.1046 165 38 164.105 38 163C 38 161.895 37.1046 161 36 161L 36 165ZM 44 161C 42.8954 161 42 161.895 42 163C 42 164.105 42.8954 165 44 165L 44 161ZM 52 165C 53.1046 165 54 164.105 54 163C 54 161.895 53.1046 161 52 161L 52 165ZM 60 161C 58.8954 161 58 161.895 58 163C 58 164.105 58.8954 165 60 165L 60 161ZM 68 165C 69.1046 165 70 164.105 70 163C 70 161.895 69.1046 161 68 161L 68 165ZM 76 161C 74.8954 161 74 161.895 74 163C 74 164.105 74.8954 165 76 165L 76 161ZM 84 165C 85.1046 165 86 164.105 86 163C 86 161.895 85.1046 161 84 161L 84 165ZM 92 161C 90.8954 161 90 161.895 90 163C 90 164.105 90.8954 165 92 165L 92 161ZM 100 165C 101.105 165 102 164.105 102 163C 102 161.895 101.105 161 100 161L 100 165ZM 108 161C 106.895 161 106 161.895 106 163C 106 164.105 106.895 165 108 165L 108 161ZM 57 -2L 53.4375 -2L 53.4375 2L 57 2L 57 -2ZM 46.3125 -2L 39.1875 -2L 39.1875 2L 46.3125 2L 46.3125 -2ZM 32.0625 -2L 24.9375 -2L 24.9375 2L 32.0625 2L 32.0625 -2ZM 17.8125 -2L 10.6875 -2L 10.6875 2L 17.8125 2L 17.8125 -2ZM 3.5625 -2L 0 -2L 0 2L 3.5625 2L 3.5625 -2ZM -2 0L -2 4.075L 2 4.075L 2 0L -2 0ZM -2 12.225L -2 20.375L 2 20.375L 2 12.225L -2 12.225ZM -2 28.525L -2 36.675L 2 36.675L 2 28.525L -2 28.525ZM -2 44.825L -2 52.975L 2 52.975L 2 44.825L -2 44.825ZM -2 61.125L -2 69.275L 2 69.275L 2 61.125L -2 61.125ZM -2 77.425L -2 85.575L 2 85.575L 2 77.425L -2 77.425ZM -2 93.725L -2 101.875L 2 101.875L 2 93.725L -2 93.725ZM -2 110.025L -2 118.175L 2 118.175L 2 110.025L -2 110.025ZM -2 126.325L -2 134.475L 2 134.475L 2 126.325L -2 126.325ZM -2 142.625L -2 150.775L 2 150.775L 2 142.625L -2 142.625ZM -2 158.925L -2 163L 2 163L 2 158.925L -2 158.925ZM 0 165L 4 165L 4 161L 0 161L 0 165ZM 12 165L 20 165L 20 161L 12 161L 12 165ZM 28 165L 36 165L 36 161L 28 161L 28 165ZM 44 165L 52 165L 52 161L 44 161L 44 165ZM 60 165L 68 165L 68 161L 60 161L 60 165ZM 76 165L 84 165L 84 161L 76 161L 76 165ZM 92 165L 100 165L 100 161L 92 161L 92 165ZM 108 165L 112 165L 112 161L 108 161L 108 165Z"/>
<path id="path17_fill" d="M 20.0426 0C 8.9914 0 0 8.97154 0 20C 0 31.0285 8.9914 40 20.0426 40C 31.0937 40 40.0851 31.0285 40.0851 20C 40.0851 8.97154 31.0937 0 20.0426 0ZM 20.0426 38.4615C 9.84166 38.4615 1.54173 30.1792 1.54173 20C 1.54173 9.82077 9.84166 1.53846 20.0426 1.53846C 30.2434 1.53846 38.5434 9.82077 38.5434 20C 38.5434 30.1792 30.2434 38.4615 20.0426 38.4615Z"/>
<path id="path18_fill" d="M 20.0426 9.23077L 11.1776 9.23077L 11.1776 0.769231C 11.1776 0.343846 10.8322 0 10.4067 0C 9.98119 0 9.63584 0.343846 9.63584 0.769231L 9.63584 9.23077L 0.770867 9.23077C 0.345349 9.23077 0 9.57461 0 10C 0 10.4254 0.345349 10.7692 0.770867 10.7692L 9.63584 10.7692L 9.63584 20C 9.63584 20.4254 9.98119 20.7692 10.4067 20.7692C 10.8322 20.7692 11.1776 20.4254 11.1776 20L 11.1776 10.7692L 20.0426 10.7692C 20.4681 10.7692 20.8134 10.4254 20.8134 10C 20.8134 9.57461 20.4681 9.23077 20.0426 9.23077Z"/>
<path id="path19_fill" d="M 19.0879 1.00529C 17.8146 -0.335097 15.7436 -0.335097 14.4703 1.00529L 1.3883 14.7844C 1.38213 14.7909 1.3785 14.7989 1.37306 14.8058C 1.36544 14.815 1.35891 14.8249 1.35202 14.8348C 1.33279 14.8631 1.31792 14.8933 1.30667 14.9261C 1.30341 14.9361 1.29869 14.9449 1.29615 14.9548C 1.29507 14.9586 1.29289 14.9624 1.2918 14.9663L 0.00943185 20.6404C 0.00362764 20.666 0.00217658 20.692 0.00145105 20.7176C 0.00145105 20.7225 0 20.7271 0 20.7321C 0.000362764 20.7756 0.00943185 20.818 0.0235796 20.8589C 0.0268445 20.8685 0.0304721 20.8769 0.0344625 20.8861C 0.052238 20.9269 0.0743665 20.9663 0.105564 20.9992C 0.140027 21.0355 0.180656 21.0633 0.224551 21.0825C 0.268445 21.1016 0.315242 21.1111 0.362038 21.1111C 0.389971 21.1111 0.418266 21.1077 0.445836 21.1008L 5.83288 19.7501C 5.84267 19.7478 5.85138 19.7421 5.86081 19.7386C 5.87314 19.7344 5.88475 19.7295 5.89672 19.7237C 5.92284 19.7111 5.94715 19.6955 5.96964 19.6767C 5.97834 19.6695 5.98741 19.6641 5.99576 19.6561C 5.99866 19.653 6.00229 19.6515 6.00519 19.6485L 19.0875 5.86897C 20.3608 4.52782 20.3608 2.34606 19.0879 1.00529ZM 18.5749 1.54557C 19.4775 2.49661 19.5544 3.98983 18.8107 5.03677L 15.2604 1.29721C 16.2547 0.513917 17.6724 0.594921 18.5749 1.54557ZM 16.7793 7.21968L 13.1879 3.43694L 13.7009 2.89666L 17.2922 6.6794L 16.7793 7.21968ZM 1.79967 19.2148C 1.65783 19.0654 1.42856 19.0654 1.28672 19.2148L 1.01211 19.504L 1.93861 15.4049L 3.54275 15.2173L 3.33634 17.1744C 3.33489 17.1889 3.33996 17.2023 3.33996 17.2164C 3.33996 17.2309 3.33489 17.2439 3.33634 17.2585C 3.33779 17.2711 3.34395 17.2814 3.34649 17.2936C 3.35085 17.3158 3.35701 17.336 3.36463 17.3566C 3.37406 17.3815 3.38531 17.404 3.39909 17.4258C 3.41034 17.4434 3.42159 17.4591 3.43537 17.4743C 3.45278 17.4938 3.47165 17.5103 3.49232 17.5255C 3.50865 17.5374 3.52425 17.5485 3.54239 17.5576C 3.56633 17.5695 3.59136 17.5764 3.61748 17.5828C 3.63126 17.5863 3.64251 17.5943 3.65666 17.5962C 3.66972 17.5978 3.68278 17.5985 3.6962 17.5985L 3.69656 17.5985L 3.69692 17.5985L 3.69729 17.5985L 3.69765 17.5985C 3.71071 17.5985 3.72413 17.5978 3.73719 17.5962L 5.59527 17.3788L 5.41715 19.0684L 1.52506 20.0443L 1.79967 19.7551C 1.94115 19.606 1.94115 19.3642 1.79967 19.2148ZM 6.35235 17.1213L 14.4703 8.57038C 14.6121 8.42098 14.6121 8.1795 14.4703 8.0301C 14.3284 7.8807 14.0992 7.8807 13.9573 8.0301L 5.83941 16.581L 4.10793 16.7835L 4.3002 14.9598L 12.4188 6.40926C 12.5607 6.25986 12.5607 6.01837 12.4188 5.86897C 12.277 5.71957 12.0477 5.71957 11.9059 5.86897L 3.78725 14.4195L 2.63258 14.5547L 12.675 3.97722L 16.2663 7.75996L 6.22393 18.3375L 6.35235 17.1213ZM 17.8052 6.13911L 14.2138 2.35638L 14.7271 1.81571L 18.3185 5.59845L 17.8052 6.13911Z"/>
<path id="path20_fill" d="M 40.0851 20C 40.0851 31.0457 31.1117 40 20.0426 40C 8.97336 40 0 31.0457 0 20C 0 8.95431 8.97336 0 20.0426 0C 31.1117 0 40.0851 8.95431 40.0851 20Z"/>
<path id="path21_stroke_2x" d="M 38.5851 20C 38.5851 30.2143 30.2863 38.5 20.0426 38.5L 20.0426 41.5C 31.9372 41.5 41.5851 31.8771 41.5851 20L 38.5851 20ZM 20.0426 38.5C 9.79878 38.5 1.5 30.2143 1.5 20L -1.5 20C -1.5 31.8771 8.14794 41.5 20.0426 41.5L 20.0426 38.5ZM 1.5 20C 1.5 9.78574 9.79878 1.5 20.0426 1.5L 20.0426 -1.5C 8.14794 -1.5 -1.5 8.12287 -1.5 20L 1.5 20ZM 20.0426 1.5C 30.2863 1.5 38.5851 9.78574 38.5851 20L 41.5851 20C 41.5851 8.12287 31.9372 -1.5 20.0426 -1.5L 20.0426 1.5Z"/>
<path id="path22_fill" d="M 12.805 -7.56365e-08C 7.91191 -7.56365e-08 3.47464 2.53298 0.200385 6.64722C -0.0667948 6.98429 -0.0667948 7.4552 0.200385 7.79227C 3.47464 11.9115 7.91191 14.4444 12.805 14.4444C 17.698 14.4444 22.1353 11.9115 25.4095 7.79722C 25.6767 7.46015 25.6767 6.98925 25.4095 6.65218C 22.1353 2.53298 17.698 -7.56365e-08 12.805 -7.56365e-08ZM 13.156 12.308C 9.9079 12.5013 7.22563 9.96835 7.42994 6.89011C 7.59759 4.35217 9.77169 2.29505 12.454 2.13643C 15.702 1.94311 18.3843 4.47609 18.18 7.55434C 18.0071 10.0873 15.833 12.1444 13.156 12.308ZM 12.9936 9.95844C 11.2438 10.0625 9.79789 8.69938 9.91314 7.04377C 10.0022 5.67566 11.1757 4.57027 12.6216 4.48105C 14.3714 4.37695 15.8173 5.74011 15.702 7.39571C 15.6077 8.76878 14.4342 9.87417 12.9936 9.95844Z"/>
</defs>
</svg>
