<?xml version="1.0" encoding="utf-8"?>
<!-- Generator: Adobe Illustrator 19.0.0, SVG Export Plug-In . SVG Version: 6.00 Build 0)  -->
<svg version="1.1" id="Capa_1" xmlns="http://www.w3.org/2000/svg" xmlns:xlink="http://www.w3.org/1999/xlink" x="0px" y="0px"
	 width="51.5px" height="33.3px" viewBox="-365 292.1 51.5 33.3" style="enable-background:new -365 292.1 51.5 33.3;"
	 xml:space="preserve">
<style type="text/css">
	.st0{fill:#FFFFFF;}
</style>
<path class="st0" d="M-327.2,296.6c-1.7-1.7-4.5-1.7-6.2,0l-17.5,17.5l0,0c0,0,0,0,0,0.1c0,0.1-0.1,0.1-0.1,0.1c0,0,0,0,0,0.1l0,0
	l-1.7,7.2v0.1l0,0c0,0.1,0,0.1,0,0.1s0,0,0,0.1c0,0.1,0.1,0.1,0.1,0.1c0.1,0.1,0.1,0.1,0.1,0.1c0.1,0,0.1,0.1,0.2,0.1
	c0.1,0,0.1,0,0.1,0l7.2-1.7c0,0,0,0,0.1,0c0,0,0,0,0.1,0s0.1-0.1,0.1-0.1s0,0,0.1,0l0,0l17.5-17.5
	C-325.5,301.1-325.5,298.3-327.2,296.6z M-327.9,297.3c1.2,1.2,1.3,3.1,0.3,4.4l-4.7-4.7C-331,296-329.1,296.1-327.9,297.3z
	 M-330.3,304.5l-4.8-4.8l0.7-0.7l4.8,4.8L-330.3,304.5z M-350.3,319.7c-0.2-0.2-0.5-0.2-0.7,0l-0.4,0.4l1.2-5.2l2.2-0.3l-0.3,2.5
	v0.1v0.1c0,0,0,0,0,0.1v0.1c0,0,0,0.1,0.1,0.1c0,0,0,0.1,0.1,0.1l0.1,0.1c0,0,0.1,0,0.1,0.1c0,0,0.1,0,0.1,0h0.1h0.1l0,0l0,0l0,0
	l0,0h0.1l2.5-0.3l-0.3,2.2l-5.2,1.2l0.4-0.4C-350.1,320.2-350.1,319.9-350.3,319.7z M-344.2,317l10.8-10.8c0.2-0.2,0.2-0.5,0-0.7
	c-0.2-0.2-0.5-0.2-0.7,0l-10.8,10.8l-2.3,0.3l0.3-2.3l10.8-10.8c0.2-0.2,0.2-0.5,0-0.7c-0.2-0.2-0.5-0.2-0.7,0l-10.8,10.8l-1.5,0.2
	l13.4-13.4l4.8,4.8l-13.4,13.4L-344.2,317z M-328.9,303.2l-4.8-4.8l0.7-0.7l4.8,4.8L-328.9,303.2z"/>
</svg>
