<?xml version="1.0" encoding="utf-8"?>
<!-- Generator: Adobe Illustrator 19.0.0, SVG Export Plug-In . SVG Version: 6.00 Build 0)  -->
<svg version="1.1" id="Capa_1" xmlns="http://www.w3.org/2000/svg" xmlns:xlink="http://www.w3.org/1999/xlink" x="0px" y="0px"
	 width="42.8px" height="31px" viewBox="-371 290.6 42.8 31" style="enable-background:new -371 290.6 42.8 31;"
	 xml:space="preserve">
<style type="text/css">
	.st0{fill:#FFFFFF;}
</style>
<g>
	<path class="st0" d="M-349.6,291.1c-8.3,0-15,6.7-15,15c0,8.3,6.7,15,15,15c8.3,0,15-6.7,15-15
		C-334.6,297.8-341.3,291.1-349.6,291.1z M-349.6,319.9c-7.7,0-13.8-6.2-13.8-13.8c0-7.7,6.2-13.8,13.8-13.8
		c7.7,0,13.8,6.2,13.8,13.8C-335.7,313.7-341.9,319.9-349.6,319.9z"/>
	<path class="st0" d="M-342.4,305.5h-6.6v-6.4c0-0.3-0.2-0.6-0.6-0.6s-0.6,0.2-0.6,0.6v6.4h-6.6c-0.3,0-0.6,0.2-0.6,0.6
		s0.2,0.6,0.6,0.6h6.6v6.9c0,0.3,0.2,0.6,0.6,0.6s0.6-0.2,0.6-0.6v-6.9h6.6c0.3,0,0.6-0.2,0.6-0.6S-342.1,305.5-342.4,305.5z"/>
</g>
</svg>
