<?xml version="1.0" encoding="utf-8"?>
<!-- Generator: Adobe Illustrator 19.0.0, SVG Export Plug-In . SVG Version: 6.00 Build 0)  -->
<svg version="1.1" id="Capa_1" xmlns="http://www.w3.org/2000/svg" xmlns:xlink="http://www.w3.org/1999/xlink" x="0px" y="0px"
	 width="50.8px" height="31.2px" viewBox="-370 291.8 50.8 31.2" style="enable-background:new -370 291.8 50.8 31.2;"
	 xml:space="preserve">
<style type="text/css">
	.st0{fill:#FFFFFF;}
</style>
<g>
	<path class="st0" d="M-344.6,293c-9.2,0-17.5,5-23.7,13.2c-0.5,0.7-0.5,1.6,0,2.3c6.1,8.2,14.5,13.2,23.7,13.2
		c9.2,0,17.5-5,23.7-13.2c0.5-0.7,0.5-1.6,0-2.3C-327.1,298.1-335.4,293-344.6,293z M-343.9,317.5c-6.1,0.3-11.1-4.7-10.8-10.8
		c0.3-5,4.4-9.1,9.4-9.4c6.1-0.4,11.1,4.6,10.7,10.7C-334.8,313.1-338.9,317.1-343.9,317.5z M-344.2,312.8c-3.3,0.2-6-2.5-5.8-5.8
		c0.2-2.7,2.4-4.9,5.1-5.1c3.3-0.2,6,2.5,5.8,5.8C-339.3,310.4-341.5,312.6-344.2,312.8z"/>
</g>
</svg>
